<?xml version="1.0" encoding="UTF-8"?>
<!DOCTYPE svg PUBLIC "-//W3C//DTD SVG 1.1//EN" "http://www.w3.org/Graphics/SVG/1.1/DTD/svg11.dtd">
<!-- Creator: CorelDRAW -->
<svg xmlns="http://www.w3.org/2000/svg" xml:space="preserve" width="9mm" height="7mm" version="1.1" style="shape-rendering:geometricPrecision; text-rendering:geometricPrecision; image-rendering:optimizeQuality; fill-rule:evenodd; clip-rule:evenodd"
viewBox="0 0 900 700"
 xmlns:xlink="http://www.w3.org/1999/xlink"
 xmlns:xodm="http://www.corel.com/coreldraw/odm/2003"
 aria-hidden="true"
 role="img">
 <defs>
  <style type="text/css">
   <![CDATA[
    .fil0 {fill:#434242}
    .fil1 {fill:white}
   ]]>
  </style>
 </defs>
 <g id="Layer_x0020_1">
  <metadata id="CorelCorpID_0Corel-Layer"/>
  <rect class="fil0" x="-7.2" y="5.6" width="900" height="700"/>
  <path class="fil1" d="M494.79 348.06c0,-3.52 3.06,-13.87 4.71,-15.91 0.75,-0.93 9.64,-7.39 13.22,-7.39 9.1,0 18.91,-1.22 24.43,1.56 1.16,0.59 0.33,0.19 1.74,0.95 10.1,5.36 11.48,14.21 11.48,26.17l0 63.65c0,3.89 -1.33,3.69 -0.68,8.68 1.66,12.87 -0.12,12.32 -0.12,20 0,2.85 0.8,4.62 0.8,8.97l0 49.3c0,8.45 -1.93,17.45 -5.33,22.45 -4.6,6.74 -9.52,6.23 -19.27,7.67 -4.91,0.73 -17.03,-0.16 -22.36,-3.79 -2.89,-1.97 -4.68,-4.55 -5.94,-7.49 -0.85,-1.99 -2.68,-8.01 -2.68,-10.77l0 -164.05zm94.89 131.77c0,-38.68 -0.89,-74.8 -0.89,-112.94l-0.01 -21.49c-0.36,-3.61 -0.99,-2.89 -1.52,-5.63 -0.49,-2.53 -0.03,-3.97 -0.67,-6.49l-3.34 -10.98c-0.61,-1.57 -0.3,-0.53 -1.11,-2.48 -2.57,-6.17 -9.23,-14.23 -14.94,-17.23 -1.58,-0.83 -3.12,-1.64 -4.51,-2.69 -8.62,-6.56 -22.76,-7.22 -34.09,-7.67 -1.69,-0.07 -2.99,0.29 -5.96,0.39 -21.17,0.72 -11.82,-1.93 -32.12,3.73 -5.28,1.48 -2.05,1.24 -9.32,4.99 -7.78,4.02 -17.13,15.24 -20.25,23.58 -0.1,0.27 -0.39,1.03 -0.48,1.3 -5.78,17.55 -4.09,50.04 -4.09,70.25l-0.73 20.08c0.16,2.53 0.73,1.8 0.73,4.12l-0.86 24.26c-0.1,3.63 1,4.29 0.92,8.91 -0.11,6.91 -1.92,5.87 -0.46,17.65 3.25,26.25 -4.15,39.28 5.26,64.37 1.74,4.64 1.05,4.33 4.3,8.2 7.13,8.46 -0.83,2.13 10.17,10.41 6.43,4.84 3.06,3.37 12.48,7.21 3.09,1.26 4.74,1.7 8.2,2.53 2.25,0.55 4.9,1.59 7.75,2.11 9.2,1.7 36.58,0.89 48.48,-3.61l6.65 -2.32c10.32,-3.79 20.07,-14.93 24.15,-25.04 0.11,-0.26 0.4,-1.02 0.51,-1.29 7.73,-19.37 5.75,-33.47 5.75,-54.23zm-327.68 -141.01c0.46,2.4 1.12,3.09 1.82,7.15 1.63,9.61 -0.31,22.04 -2.33,31.44 -1.43,6.69 -8.25,10.99 -14.11,10.99l-126.39 0c-3.71,0 -2.1,-3.32 -2.04,-5.38 0.1,-3.76 -1.28,-20.42 -0.6,-28.64 1.39,-16.77 -0.05,-10.98 -0.05,-26.94 0,-2.42 0.43,-2.47 0.9,-4.47 15.78,0 127.46,-0.74 131.32,0.44 0.08,0.02 2.81,1.31 3.04,1.45 2.63,1.5 5.3,3.66 6.95,6.49 2.06,3.51 0.7,3.33 1.49,7.47zm-182.11 -41.85c0,17.51 -1.38,110.56 0.9,119.98l169.28 0.01c12.14,0 12.39,0.49 22.77,-2.29 3.82,-1.02 13.05,-6.68 15.79,-10.1 2.7,-3.36 4.81,-5.97 6.55,-10.45 3.17,-8.21 1.92,-5.42 3.57,-13.43 2.96,-14.31 1.68,-15.01 1.74,-27.92 0.02,-3.76 0.9,-7.62 0.18,-12.35 -0.89,-5.89 -1.28,-12.71 -2.95,-18.56 -4.06,-14.28 -10.69,-17.3 -19.69,-23.25 -5.44,-3.59 -14.68,-4.2 -21.68,-4.2 -57.97,0 -115.94,0 -173.9,0 -1.9,0 -2.56,0.67 -2.56,2.56zm273.27 28.68c0,-2.06 0.63,-2.69 2.69,-2.69l34.06 0c3.04,0 5.31,3.83 6.91,6.54 1.43,2.41 1.16,-1.33 1.16,2.43 0,5.82 0.02,10.65 -5.15,14.57 -3.94,2.98 -32.75,1.56 -38.77,1.56 -1.62,-6.93 -0.9,-14.08 -0.9,-22.41zm-37.52 22.41l-0.05 62.81c-0.14,9.54 -2.66,6.98 33.99,6.98 4.98,0 1.46,-9.57 2.8,-19.38 0.85,-6.23 0.65,-14.25 0.65,-21.85 7.04,-1.6 13.29,-0.9 21.64,-0.9 5.83,0 6.44,4.61 9.24,10.66l4.76 8.68c4.14,6.93 5.17,11.22 7.89,15.4 4.81,7.39 -0.22,7.42 16.66,7.39 8.92,-0.01 17.84,0 26.76,0 1.88,-7.86 -7.27,-15.05 -11.13,-24.52 -0.59,-1.46 -10.65,-16.69 -13.97,-23.88 5.12,-3.42 10.89,-5.09 14.02,-10.16 5.58,-9.02 5.71,-19.17 5.71,-29.16 0,-4.57 -4.06,-21.16 -8.1,-24.93 -1.33,-1.24 -2.93,-1.99 -4.66,-3.41 -5.07,-4.18 -11.22,-7.38 -18.49,-7.38l-87.72 0 0 53.65zm-121.02 -82.6c5.98,3.99 6.96,4.33 18.45,3.42 0.94,-0.08 14.76,-1.15 17.15,0.17 1.29,-1.92 3.59,-3.22 3.59,-5.25l0 -40.47 43.29 0c0.73,10.85 -1.68,40.07 1.35,43.51 2.1,2.39 4.26,1.51 6.6,1.62 6.63,0.31 22.91,1.17 29.43,-0.31 2.27,-9.42 0.91,-103.31 0.9,-120.89 0,-1.92 -1.53,-3.45 -3.45,-3.45l-31.38 0c-2.59,0 -3.45,2.65 -3.45,5.25l0 41.36 -43.29 0c0,-10.42 1.12,-37.26 -0.9,-45.71 -5.34,-1.27 -33.41,-2.43 -36.79,0.65 -2.41,2.2 -0.96,1.58 -1.09,2.46 -0.02,0.1 -0.03,1.26 -0.11,1.86 -1.46,10.22 -0.29,104.29 -0.3,115.78zm-114.74 202.72c0,2.38 0.43,2.37 0.9,4.36 1.99,0.47 1.97,0.89 4.35,0.89l353.19 0c1.92,0 3.46,-1.54 3.46,-3.46 0,-28.95 2.16,-26.42 -7.92,-26.79 -4.56,-0.17 -5.6,-1.49 -9.37,-1.22 -8.16,0.59 -13.54,1.25 -22.47,1.25l-281.03 0c-3.47,0 -4.21,-0.63 -6.27,-0.63 -2.07,0 -2.81,0.63 -6.28,0.63l-22.41 0c-2.62,0 -2.35,-1.58 -4.52,0.66 -2.85,2.94 -1.62,17.5 -1.63,24.31zm252.79 -320.92l0 117.44c0,2.71 0.79,0.57 1.79,4.35 3.91,-2.15 46.47,-0.89 57.25,-0.9l30.93 0.54c4.69,-0.6 8.65,-0.53 13.75,-0.54 1.59,-6.58 1.58,-21.83 0.01,-28.43l-66.34 -0.89c0,-21.09 -6.14,-18.19 28.82,-18.19 5.68,0 11.35,0 17.03,0 16.95,0.01 14.21,3.94 14.21,-24.07 0,-5.87 -3.17,-5.1 -8.33,-5.81 -5.5,-0.76 -8.51,0.56 -13.95,0.56 -4.04,0 -4.18,-0.81 -7.08,-0.72 -2.2,0.07 -3.51,0.72 -7.26,0.72 -26.81,0 -23.44,2.98 -23.44,-13.58 0,-2.46 0.44,-2.57 0.9,-4.61l59.29 0c3.05,0 3.38,-0.66 6.15,-0.89 0,-5.34 -0.02,-10.68 0,-16.01 0.01,-4.79 1.45,-12.42 -3.46,-12.42l-96.81 0c-1.92,0 -3.46,1.54 -3.46,3.45zm423.74 344.36c0.03,-14.4 -2.01,-17.67 3.61,-18.29 12.57,-1.36 46.96,2.54 60.94,-0.8l0 -28.42c-16.45,-3.88 -24.31,-0.9 -29.45,-0.9l-26.9 0c-4.8,0 -8.09,-1.08 -11.47,-0.79 -8.95,0.75 -32.53,0.11 -34.11,1.69 -2.59,5.16 -0.89,107 -0.9,122.55 1.99,0.47 1.97,0.89 4.35,0.89 38.19,0 34.02,3.01 33.94,-11.52 -0.22,-42.71 -1.91,-33.3 9.09,-33.3l41.72 -0.35c2.06,-0.03 7.45,1.72 7.45,-3.1 0,-35 1.54,-26.77 -7.04,-26.77l-44.1 -0.73c-4.83,-0.29 -2.08,0.97 -7.13,-0.16zm-114.73 -17.29c4.63,-2.14 40.62,-0.92 51.22,-0.9 4.9,0.01 13.32,1.58 13.32,-3.46 0,-30.85 2.81,-26.78 -13.32,-26.76l-33.14 -0.92c-13.86,0.81 -29.96,1.79 -44.13,0.13 -5.03,-0.58 -6.85,0.79 -11.34,0.79 -2.29,9.53 -0.9,104.04 -0.9,121.78 0,1.9 0.66,2.56 2.56,2.56l31.37 0c5.78,0 4.66,-10.91 4.31,-15.04 -1.14,-13.57 -1.14,-2.7 0,-16.27l0.05 -13.51c11.11,0.01 21.72,-0.04 31.53,-0.85 4.75,-0.39 11.21,-0.07 16.13,-0.06 12.99,0.04 10.6,6.7 10.61,-29.31l-55.45 0c-2.57,0 -3.72,-2.35 -3.72,-4.61l0.9 -13.57zm-577.04 -325.27l0.01 21.51c0,1.97 1.5,2.58 2.69,4.35 7.22,-1.89 25.44,-0.89 33.93,-0.89 4.92,0 2.82,12.32 2.82,17.16l0 34.06c0,3.76 0.75,5.19 0.88,8.96 0.15,4.31 -0.88,6.07 -0.88,8.97 0,25.16 -4.47,27.69 19.36,25.69 15.14,-1.28 8.9,0.17 17.13,0.18 2.1,-3.12 2.73,-3.32 2.74,-8.78l-0.05 -85.35c8.68,-1.98 33.3,1.29 39.44,-1.79 1.15,-1.14 1.42,-19.94 1.12,-22.42 -0.71,-5.97 -0.91,-2.84 -2.01,-6.9l-106.56 -0.01c-6.27,-0.05 -10.62,-1.33 -10.62,5.26z"/>
 </g>
</svg>
